<svg xmlns="http://www.w3.org/2000/svg" fill="#fd405c" viewBox="0 0 640 512">
  <path
    d="m64 352 85.7-214.2a168.2 168.2 0 0 1 284.7-46.2l74.3 87.8a24 24 0 0 0-6.5 36.6c-3.9.3-7.5 1.5-10.7 3.4L402 192.6c-1.3-.4-2.7-.6-4-.6h-.8a13.2 13.2 0 0 0-12.1 18.6L448 352H64z"
  />
  <path
    d="M560 160a24 24 0 0 0-23.9 22.2 24 24 0 0 0-33.8 33.8c-12.5 1-22.3 11.3-22.3 24s9.8 23 22.2 23.9a24 24 0 0 0 33.8 33.8c1 12.5 11.3 22.3 24 22.3s23-9.8 23.9-22.2a24 24 0 0 0 33.8-33.8c12.5-1 22.3-11.3 22.3-24s-9.8-23-22.2-23.9a24 24 0 0 0-33.8-33.8 24.1 24.1 0 0 0-24-22.3zM64 352a64 64 0 0 0 0 128h384a64 64 0 0 0 0-128H64z"
    style="opacity:.4" />
</svg>